HIERARCHY
ROOT Hips
{
	OFFSET 0.000000 0.000000 0.000000 
	CHANNELS 6 Xposition Yposition Zposition Zrotation Yrotation Xrotation
	JOINT LeftUpLeg
	{
		OFFSET 1.363060 -1.794630 0.839290 
		CHANNELS 3 Zrotation Yrotation Xrotation
		JOINT LeftLeg
		{
			OFFSET 2.448110 -6.726130 0.000000 
			CHANNELS 3 Zrotation Yrotation Xrotation
			JOINT LeftFoot
			{
				OFFSET 2.562200 -7.039590 0.000000 
				CHANNELS 3 Zrotation Yrotation Xrotation
				JOINT LeftToeBase
				{
					OFFSET 0.157640 -0.433110 2.322550 
					CHANNELS 3 Zrotation Yrotation Xrotation
					End Site
					{
						OFFSET 0.000000 0.000000 0.000000 
					}
				}
			}
		}
	}
	JOINT RightUpLeg
	{
		OFFSET -1.305520 -1.794630 0.839290 
		CHANNELS 3 Zrotation Yrotation Xrotation
		JOINT RightLeg
		{
			OFFSET -2.542530 -6.985550 0.000000 
			CHANNELS 3 Zrotation Yrotation Xrotation
			JOINT RightFoot
			{
				OFFSET -2.568260 -7.056230 0.000000 
				CHANNELS 3 Zrotation Yrotation Xrotation
				JOINT RightToeBase
				{
					OFFSET -0.164730 -0.452590 2.363150 
					CHANNELS 3 Zrotation Yrotation Xrotation
					End Site
					{
						OFFSET 0.000000 0.000000 0.000000 
					}
				}
			}
		}
	}
	JOINT Spine
	{
		OFFSET 0.028270 2.035590 -0.193380 
		CHANNELS 3 Zrotation Yrotation Xrotation
		JOINT Spine1
		{
			OFFSET 0.056720 2.048850 -0.042750 
			CHANNELS 3 Zrotation Yrotation Xrotation
			JOINT Neck1
			{
				OFFSET -0.054170 1.746240 0.172020 
				CHANNELS 3 Zrotation Yrotation Xrotation
				JOINT Head
				{
					OFFSET 0.104070 1.761360 -0.123970 
					CHANNELS 3 Zrotation Yrotation Xrotation
					End Site
					{
						OFFSET 0.000000 0.000000 0.000000 
					}
				}
			}
			JOINT LeftArm
			{
				OFFSET 3.362410 1.200890 -0.311210 
				CHANNELS 3 Zrotation Yrotation Xrotation
				JOINT LeftForeArm
				{
					OFFSET 4.983000 -0.000000 -0.000000 
					CHANNELS 3 Zrotation Yrotation Xrotation
					JOINT LeftHand
					{
						OFFSET 3.483560 -0.000000 -0.000000 
						CHANNELS 3 Zrotation Yrotation Xrotation
						JOINT LeftHandIndex1
						{
							OFFSET 0.715260 -0.000000 -0.000000 
							CHANNELS 3 Zrotation Yrotation Xrotation
							End Site
							{
								OFFSET 0.000000 0.000000 0.000000 
							}
						}
					}
				}
			}
			JOINT RightArm
			{
				OFFSET -3.136600 1.374050 -0.404650 
				CHANNELS 3 Zrotation Yrotation Xrotation
				JOINT RightForeArm
				{
					OFFSET -5.241900 -0.000000 -0.000000 
					CHANNELS 3 Zrotation Yrotation Xrotation
					JOINT RightHand
					{
						OFFSET -3.444170 -0.000000 -0.000000 
						CHANNELS 3 Zrotation Yrotation Xrotation
						JOINT RightHandIndex1
						{
							OFFSET -0.622530 -0.000000 -0.000000 
							CHANNELS 3 Zrotation Yrotation Xrotation
							End Site
							{
								OFFSET 0.000000 0.000000 0.000000 
							}
						}
					}
				}
			}
		}
	}
}
MOTION
Frames: 10
Frame Time: 0.041667
13.796760 18.062975 23.069730 -177.107957 -3.628978 -178.192670 0.180874 -26.987471 -55.058742 3.275016 7.296145 27.261054 0.356559 -2.728664 -7.945237 0.492600 -4.500200 -12.488200 31.988517 14.884026 6.128129 -2.676722 -4.744692 17.211790 -0.519148 -3.416540 -14.496327 -1.230700 -7.035400 19.820300 0.359608 3.829936 8.672240 -6.913603 1.605245 -3.142030 2.374327 -6.159573 12.353349 0.775600 -3.237000 6.525200 -88.797784 11.842682 7.071079 12.166464 -11.032062 -0.936414 -0.516760 -0.588264 9.174069 -7.125000 0.000000 0.000000 74.790072 57.690320 -10.098032 -10.670468 17.763717 -0.675775 0.781885 0.358572 3.913695 7.125000 0.000000 0.000000 
13.789142 18.061642 22.946037 -177.210655 -3.740736 -178.271104 -0.018956 -27.030133 -55.463902 3.158750 7.091722 26.598626 0.242987 -1.965284 -7.271008 0.361200 -3.860600 -10.684900 31.879593 14.140261 6.852868 -2.584629 -4.519563 16.467100 -0.511908 -3.256188 -14.347371 -1.124700 -6.736300 18.936400 -0.161316 3.963739 8.514423 -7.052047 1.653174 -3.137639 2.751797 -6.396082 12.087734 0.861400 -3.326700 6.392900 -88.365075 12.960165 6.074815 11.926968 -10.690503 -0.880723 -0.493628 -0.506819 10.378764 -7.125000 0.000000 0.000000 74.087913 58.316383 -9.986292 -10.810188 18.102199 -0.716671 0.791940 0.384679 2.831676 7.125000 0.000000 0.000000 
13.784857 18.060880 22.823582 -177.197166 -3.756462 -178.335836 0.098424 -27.076590 -55.967910 3.052062 6.904169 25.997415 0.152358 -1.315648 -6.780865 0.268600 -3.333800 -9.209400 31.939613 13.681464 7.792798 -2.482190 -4.256572 15.621426 -0.482280 -3.333737 -14.057365 -1.015600 -6.411600 17.983400 -0.349509 4.049240 8.687441 -7.076002 1.691395 -3.032299 2.711198 -6.516240 12.106143 0.817300 -3.375000 6.431500 -88.172330 13.642291 4.316665 11.660918 -10.335457 -0.817503 -0.489820 -0.438053 12.082472 -7.125000 0.000000 0.000000 73.333141 59.387147 -10.490550 -10.824190 18.327532 -0.724974 0.822119 0.399599 2.712330 7.125000 0.000000 0.000000 
13.781048 18.047264 22.702555 -177.132338 -3.701822 -178.407434 0.359341 -27.164780 -56.493610 2.954945 6.734392 25.460539 0.065534 -0.607812 -6.443537 0.340100 -3.747300 -10.366800 32.034183 13.190904 8.809172 -2.374411 -3.960436 14.681122 -0.441130 -3.344728 -13.592773 -0.821300 -5.782300 16.154100 -0.352821 4.070572 8.937089 -7.080326 1.701359 -2.942988 2.865349 -6.517557 11.955543 0.868800 -3.361100 6.446600 -88.167000 14.175638 1.906080 11.386125 -10.019619 -0.753889 -0.526211 -0.433706 14.196299 -7.125000 0.000000 0.000000 72.595325 60.642408 -10.986728 -10.753348 18.434076 -0.699136 0.861126 0.417556 2.875708 7.125000 0.000000 0.000000 
13.776002 18.026315 22.580100 -176.832423 -3.504787 -178.652262 0.900358 -27.216589 -56.718333 2.875554 6.611441 25.061292 0.005911 0.017783 -6.453920 0.464300 -4.370600 -12.121800 32.410006 12.780544 9.963348 -2.265346 -3.658381 13.737337 -0.418627 -3.333740 -13.357915 -0.806200 -5.730200 16.003600 -0.224564 4.205136 9.148138 -7.225208 1.763949 -2.919321 3.237626 -6.584415 11.628220 0.990400 -3.371600 6.377900 -88.126649 14.843515 -0.277096 11.164260 -9.799389 -0.710143 -0.566489 -0.427994 16.099783 -7.125000 0.000000 0.000000 71.690471 61.719648 -11.738694 -10.697723 18.547953 -0.677264 0.890860 0.442460 3.059711 7.125000 0.000000 0.000000 
13.770955 17.996987 22.454407 -176.364672 -3.286801 -178.970905 1.475777 -27.157062 -56.712694 2.792351 6.485022 24.633851 -0.049484 0.513112 -6.349002 0.527300 -4.653600 -12.923300 33.032347 12.472866 11.004087 -2.177598 -3.426527 13.027355 -0.389531 -3.567134 -13.175732 -0.748200 -5.525200 15.412900 -0.051187 4.412152 9.362997 -7.433904 1.862279 -2.885182 3.221127 -6.753822 11.510521 0.955800 -3.447000 6.348200 -87.991398 15.549383 -2.136137 11.031796 -9.691664 -0.685981 -0.553735 -0.342596 17.887103 -7.125000 0.000000 0.000000 70.450014 62.609275 -12.238503 -10.703158 18.705638 -0.676537 0.904583 0.479084 2.480753 7.125000 0.000000 0.000000 
13.764004 17.997748 22.329476 -176.700902 -3.173698 -179.022622 1.176884 -27.244518 -56.664749 2.728567 6.359731 24.242517 -0.118069 1.061123 -6.125111 0.760700 -5.570100 -15.541900 32.582106 11.758260 11.528553 -2.123752 -3.263159 12.475976 -0.399161 -3.102558 -13.054156 -0.641600 -5.124600 14.264300 -0.400521 4.559967 9.537332 -7.261306 1.937662 -2.720542 3.138344 -6.919590 11.323966 0.904600 -3.527500 6.283600 -87.849848 16.219458 -3.937873 10.913019 -9.587877 -0.663438 -0.524652 -0.255548 19.562791 -7.125000 0.000000 0.000000 69.249203 63.402035 -12.162438 -10.761884 18.895721 -0.695238 0.908958 0.511298 1.437016 7.125000 0.000000 0.000000 
13.757338 18.000986 22.201784 -177.308210 -2.979225 -178.967843 0.670167 -27.358780 -56.609024 2.668929 6.227113 23.840431 -0.189322 1.557330 -5.770412 1.039000 -6.483000 -18.192400 31.770199 11.172232 12.094523 -2.088225 -3.150170 12.045234 -0.433604 -2.288959 -13.089378 -0.725900 -5.443900 15.179200 -0.770677 4.685193 9.745130 -6.892181 2.008277 -2.488987 3.366111 -6.991724 11.010317 0.987000 -3.555700 6.197700 -87.844840 16.772116 -6.187812 10.733009 -9.422671 -0.629626 -0.521737 -0.204876 21.434542 -7.125000 0.000000 0.000000 68.396557 64.316176 -12.391901 -10.787299 19.082295 -0.712185 0.922693 0.526546 1.103433 7.125000 0.000000 0.000000 
13.754862 17.990036 22.074187 -177.555810 -2.878847 -179.144975 0.711657 -27.701930 -56.303780 2.623370 6.115488 23.535107 -0.250043 1.962663 -5.461401 0.821100 -5.781700 -16.152200 31.562063 10.966638 13.094518 -2.044837 -3.054518 11.683008 -0.432552 -2.240972 -13.066340 -0.768400 -5.597400 15.620600 -0.963812 4.728040 9.997592 -6.740730 2.024983 -2.420515 3.717596 -6.991998 10.623560 1.107800 -3.539700 6.102600 -87.817752 17.068586 -9.500673 10.420466 -9.154353 -0.578177 -0.518037 -0.129235 24.192599 -7.125000 0.000000 0.000000 67.738689 65.338544 -12.888627 -10.741833 19.192146 -0.697014 0.939636 0.550701 1.051604 7.125000 0.000000 0.000000 
13.749720 17.967754 21.942210 -177.642480 -2.804117 -179.565594 0.884036 -28.116601 -55.579313 2.572930 5.994601 23.200627 -0.297343 2.267836 -5.224244 0.431600 -4.215800 -11.684500 31.585063 10.569483 14.064422 -2.014192 -3.044474 11.584599 -0.439781 -2.375101 -13.237418 -0.626800 -5.066100 14.097100 -1.328320 4.898672 10.240631 -6.828871 2.088629 -2.458607 3.901998 -7.140941 10.222414 1.129600 -3.596600 5.964400 -87.482285 17.293873 -13.303845 10.022250 -8.855050 -0.525739 -0.520469 -0.045726 27.691578 -7.125000 0.000000 0.000000 66.744320 66.005819 -13.646899 -10.805644 19.404583 -0.710222 0.943715 0.568555 0.793533 7.125000 0.000000 0.000000 
